<?xml version="1.0" encoding="utf-8"?>
<!-- Generator: Adobe Illustrator 16.0.4, SVG Export Plug-In . SVG Version: 6.00 Build 0)  -->
<!DOCTYPE svg PUBLIC "-//W3C//DTD SVG 1.1//EN" "http://www.w3.org/Graphics/SVG/1.1/DTD/svg11.dtd">
<svg version="1.1" id="Layer_1" xmlns="http://www.w3.org/2000/svg" xmlns:xlink="http://www.w3.org/1999/xlink" x="0px" y="0px"
	 width="243.229px" height="82.459px" viewBox="0 0 243.229 82.459" enable-background="new 0 0 243.229 82.459"
	 xml:space="preserve">
<g>
	<path fill="#FFFFFF" d="M61.509,30.826c-0.151,8.292-0.754,15.377-5.804,22.463c-5.578,7.764-13.945,11.156-23.443,11.156
		c-17.864,0-30.302-12.136-30.302-30C1.96,15.976,14.473,3.84,32.79,3.84c11.684,0,20.729,5.276,25.629,15.905l-14.021,5.879
		c-2.035-5.427-6.332-9.045-12.287-9.045c-9.724,0-14.774,9.271-14.774,17.94c0,8.819,5.276,17.79,15,17.79
		c6.407,0,11.307-3.317,11.91-9.875H32.187V30.826H61.509z"/>
	<path fill="#FFFFFF" d="M104.395,27.66V5.725h14.774V62.56h-14.774V39.268H83.062V62.56H68.289V5.725h14.774V27.66H104.395z"/>
	<path fill="#FFFFFF" d="M143.587,62.56h-14.774V5.725h14.774V62.56z"/>
	<path fill="#FFFFFF" d="M180.746,5.725v38.368c0,11.985-6.256,19.976-18.845,19.976c-6.332,0-11.231-3.166-14.624-8.367l8.518-8.97
		c1.658,2.261,3.995,4.824,5.955,4.824c4.372,0,4.221-5.201,4.221-8.367V5.725H180.746z"/>
	<path fill="#FFFFFF" d="M222.88,5.725h18.317l-22.613,26.91l24.648,29.925h-19.146l-19.071-24.649h-0.15V62.56h-14.774V5.725
		h14.774v23.443h0.15L222.88,5.725z"/>
</g>
</svg>
