<?xml version="1.0" encoding="utf-8"?>
<!-- Generator: Adobe Illustrator 16.0.4, SVG Export Plug-In . SVG Version: 6.00 Build 0)  -->
<!DOCTYPE svg PUBLIC "-//W3C//DTD SVG 1.1//EN" "http://www.w3.org/Graphics/SVG/1.1/DTD/svg11.dtd">
<svg version="1.1" id="Layer_1" xmlns="http://www.w3.org/2000/svg" xmlns:xlink="http://www.w3.org/1999/xlink" x="0px" y="0px"
	 width="32px" height="32px" viewBox="0 0 32 32" enable-background="new 0 0 32 32" xml:space="preserve">
<g>
	<path fill="#231F20" d="M16,2C8.268,2,2,8.268,2,16c0,7.732,6.268,14,14,14c7.732,0,14-6.268,14-14C30,8.268,23.732,2,16,2z
		 M16,29.093C8.781,29.093,2.907,23.22,2.907,16C2.907,8.781,8.781,2.907,16,2.907c7.22,0,13.093,5.874,13.093,13.093
		C29.093,23.22,23.22,29.093,16,29.093z"/>
	<path fill="#231F20" d="M10.016,13.529l-1.83,4.816h0.965l0.385-0.989h1.63l0.361,0.989h0.977l-1.779-4.816H10.016z M9.798,16.61
		l0.517-1.705h0.012l0.585,1.705H9.798z"/>
	<path fill="#231F20" d="M12.886,16.037c0,1.295,0.977,2.434,2.296,2.434c0.379,0,0.722-0.118,1.064-0.28v-1.089
		c-0.256,0.292-0.647,0.498-1.04,0.498c-0.853,0-1.375-0.791-1.375-1.581c0-0.809,0.504-1.618,1.382-1.618
		c0.392,0,0.777,0.188,1.033,0.498v-1.095c-0.318-0.175-0.679-0.274-1.046-0.274C13.826,13.529,12.886,14.706,12.886,16.037z"/>
	<path fill="#231F20" d="M17.054,16.037c0,1.295,0.978,2.434,2.297,2.434c0.379,0,0.722-0.118,1.063-0.28v-1.089
		c-0.255,0.292-0.646,0.498-1.039,0.498C18.522,17.6,18,16.809,18,16.019c0-0.809,0.504-1.618,1.381-1.618
		c0.393,0,0.778,0.188,1.033,0.498v-1.095c-0.317-0.175-0.678-0.274-1.045-0.274C17.993,13.529,17.054,14.706,17.054,16.037z"/>
	<polygon fill="#231F20" points="21.486,18.346 22.401,18.346 22.401,16.28 23.727,16.28 23.727,15.483 22.401,15.483 22.401,14.45 
		23.814,14.45 23.814,13.654 21.486,13.654 	"/>
</g>
</svg>
