<?xml version="1.0" encoding="UTF-8" standalone="no"?>
<svg width="242px" height="40px" viewBox="0 0 242 40" version="1.1" xmlns="http://www.w3.org/2000/svg" xmlns:xlink="http://www.w3.org/1999/xlink" xmlns:sketch="http://www.bohemiancoding.com/sketch/ns">
    <!-- Generator: Sketch 3.1.1 (8761) - http://www.bohemiancoding.com/sketch -->
    <title>athey-mark</title>
    <desc>Created with Sketch.</desc>
    <defs></defs>
    <g id="Page-1" stroke="none" stroke-width="1" fill="none" fill-rule="evenodd" sketch:type="MSPage">
        <g id="athey-mark" sketch:type="MSArtboardGroup" fill="#000000">
            <g id="Imported-Layers" sketch:type="MSLayerGroup">
                <path d="M17.2723295,39.0786207 L15.4415455,30.0413793 L6.55685795,30.0413793 L4.72469318,39.0786207 L-0.1215,39.0786207 L8.81841477,0.776551724 L13.2876818,0.776551724 L22.1723693,39.0786207 L17.2723295,39.0786207 L17.2723295,39.0786207 Z M11.026125,8.25517241 L7.41840341,25.8993103 L14.58,25.8993103 L11.026125,8.25517241 L11.026125,8.25517241 Z" id="Fill-1" sketch:type="MSShapeGroup"></path>
                <path d="M34.874642,4.91862069 L34.874642,39.0786207 L30.2424545,39.0786207 L30.2424545,4.91862069 L23.7808636,4.91862069 L23.7808636,0.776551724 L41.2823864,0.776551724 L41.2823864,4.91862069 L34.874642,4.91862069" id="Fill-2" sketch:type="MSShapeGroup"></path>
                <path d="M61.027517,39.0786207 L61.027517,21.7034483 L52.518375,21.7034483 L52.518375,39.0786207 L47.8875682,39.0786207 L47.8875682,0.776551724 L52.518375,0.776551724 L52.518375,17.5075862 L61.027517,17.5075862 L61.027517,0.776551724 L65.6583239,0.776551724 L65.6583239,39.0786207 L61.027517,39.0786207" id="Fill-3" sketch:type="MSShapeGroup"></path>
                <path d="M73.4536534,39.0786207 L73.4536534,0.776551724 L88.2628466,0.776551724 L88.2628466,4.91862069 L78.0844602,4.91862069 L78.0844602,17.7765517 L86.8628352,17.7765517 L86.8628352,21.9186207 L78.0844602,21.9186207 L78.0844602,34.937931 L88.2628466,34.937931 L88.2628466,39.0786207 L73.4536534,39.0786207" id="Fill-4" sketch:type="MSShapeGroup"></path>
                <path d="M105.923148,23.5862069 L105.923148,39.0786207 L101.292341,39.0786207 L101.292341,23.5862069 L94.2384375,0.776551724 L99.300017,0.776551724 L103.607744,17.1296552 L107.915472,0.776551724 L113.030898,0.776551724 L105.923148,23.5862069" id="Fill-5" sketch:type="MSShapeGroup"></path>
                <path d="M145.338852,37.4110345 C143.831148,38.8096552 142.000364,39.5089655 139.415727,39.5089655 C136.345091,39.5089655 134.300301,38.3806897 132.846443,36.7655172 C130.20796,33.8606897 130.04504,29.5034483 130.04504,19.9282759 C130.04504,10.3517241 130.20796,5.99448276 132.846443,3.09103448 C134.300301,1.47586207 136.345091,0.346206897 139.415727,0.346206897 C142.05421,0.346206897 143.992687,1.15310345 145.500392,2.60551724 C147.27733,4.32689655 148.192722,7.07034483 148.246568,10.2441379 L143.615761,10.2441379 C143.615761,8.57655172 143.292682,6.90896552 142.431136,5.83310345 C141.784977,5.0262069 140.869585,4.48827586 139.415727,4.48827586 C137.908023,4.48827586 136.938784,5.08 136.292625,5.94068966 C134.94646,7.76965517 134.675847,10.8372414 134.675847,19.9282759 C134.675847,29.0193103 134.94646,32.0855172 136.292625,33.9144828 C136.938784,34.7751724 137.908023,35.3668966 139.415727,35.3668966 C140.869585,35.3668966 141.784977,34.7751724 142.431136,33.9682759 C143.292682,32.8924138 143.669608,31.2786207 143.669608,29.6110345 L148.300415,29.6110345 C148.246568,32.8386207 147.223483,35.6896552 145.338852,37.4110345" id="Fill-6" sketch:type="MSShapeGroup"></path>
                <path d="M168.513597,39.0786207 L163.236631,22.617931 L159.035216,22.617931 L159.035216,39.0786207 L154.40579,39.0786207 L154.40579,0.776551724 L163.075091,0.776551724 C168.890523,0.776551724 172.121318,3.30482759 172.121318,11.697931 C172.121318,17.022069 170.829,20.1434483 167.490511,21.7034483 L173.35979,39.0786207 L168.513597,39.0786207 L168.513597,39.0786207 Z M163.128938,4.91862069 L159.035216,4.91862069 L159.035216,18.5296552 L163.128938,18.5296552 C166.682813,18.5296552 167.490511,15.7862069 167.490511,11.697931 C167.490511,7.66206897 166.682813,4.91862069 163.128938,4.91862069 L163.128938,4.91862069 Z" id="Fill-7" sketch:type="MSShapeGroup"></path>
                <path d="M179.244256,39.0786207 L179.244256,0.776551724 L194.052068,0.776551724 L194.052068,4.91862069 L183.875063,4.91862069 L183.875063,17.7765517 L192.652057,17.7765517 L192.652057,21.9186207 L183.875063,21.9186207 L183.875063,34.937931 L194.052068,34.937931 L194.052068,39.0786207 L179.244256,39.0786207" id="Fill-8" sketch:type="MSShapeGroup"></path>
                <path d="M200.513659,39.0786207 L200.513659,0.776551724 L215.321472,0.776551724 L215.321472,4.91862069 L205.144466,4.91862069 L205.144466,17.7765517 L213.92146,17.7765517 L213.92146,21.9186207 L205.144466,21.9186207 L205.144466,34.937931 L215.321472,34.937931 L215.321472,39.0786207 L200.513659,39.0786207" id="Fill-9" sketch:type="MSShapeGroup"></path>
                <path d="M236.552216,39.0786207 L229.767545,21.7572414 L226.429057,28.3737931 L226.429057,39.0786207 L221.79825,39.0786207 L221.79825,0.776551724 L226.429057,0.776551724 L226.429057,20.1972414 L235.69067,0.776551724 L240.42917,0.776551724 L232.675261,16.5931034 L241.559949,39.0786207 L236.552216,39.0786207" id="Fill-10" sketch:type="MSShapeGroup"></path>
            </g>
        </g>
    </g>
</svg>