<?xml version="1.0" encoding="utf-8"?>
<!-- Generator: Adobe Illustrator 16.0.4, SVG Export Plug-In . SVG Version: 6.00 Build 0)  -->
<!DOCTYPE svg PUBLIC "-//W3C//DTD SVG 1.1//EN" "http://www.w3.org/Graphics/SVG/1.1/DTD/svg11.dtd">
<svg version="1.1" id="Layer_1" xmlns="http://www.w3.org/2000/svg" xmlns:xlink="http://www.w3.org/1999/xlink" x="0px" y="0px"
	 width="32px" height="32px" viewBox="0 0 32 32" enable-background="new 0 0 32 32" xml:space="preserve">
<g>
	<path d="M16,2C8.269,2,2,8.269,2,16c0,7.732,6.269,14,14,14c7.732,0,14-6.268,14-14C30,8.269,23.732,2,16,2z M16,29.093
		C8.781,29.093,2.907,23.22,2.907,16C2.907,8.781,8.781,2.907,16,2.907c7.22,0,13.093,5.873,13.093,13.093S23.22,29.093,16,29.093z"
		/>
	<path d="M8.508,11.174l-1.248,5.354h0.676l0.255-1.263h1.241l0.255,1.263h0.684l-1.24-5.354H8.508z M8.312,14.686l0.504-2.465
		l0.496,2.465H8.312z"/>
	<polygon points="13.5,11.174 11.057,11.174 11.057,11.753 11.958,11.753 11.958,16.528 12.606,16.528 12.606,11.753 13.5,11.753 	
		"/>
	<polygon points="16.65,13.514 15.463,13.514 15.463,11.174 14.815,11.174 14.815,16.528 15.463,16.528 15.463,14.1 16.65,14.1 
		16.65,16.528 17.297,16.528 17.297,11.174 16.65,11.174 	"/>
	<polygon points="20.853,15.948 19.433,15.948 19.433,14.129 20.658,14.129 20.658,13.551 19.433,13.551 19.433,11.753 
		20.853,11.753 20.853,11.174 18.785,11.174 18.785,16.528 20.853,16.528 	"/>
	<polygon points="23.424,13.461 22.823,11.174 22.116,11.174 23.102,14.363 23.102,16.528 23.747,16.528 23.747,14.363 
		24.74,11.174 24.026,11.174 	"/>
	<path d="M10.787,18.996c-0.196,0.201-0.303,0.471-0.303,0.751c0,0.305,0.104,0.571,0.329,0.775c0.212,0.194,0.485,0.304,0.77,0.304
		c0.167,0,0.294-0.042,0.471-0.096v-0.639c-0.111,0.133-0.286,0.218-0.459,0.218c-0.333,0-0.555-0.234-0.555-0.559
		c0-0.318,0.22-0.569,0.547-0.569c0.182,0,0.359,0.079,0.468,0.227V18.77c-0.157-0.066-0.316-0.104-0.487-0.104
		C11.278,18.664,10.987,18.789,10.787,18.996z"/>
	<path d="M14.49,19.351c0-0.438-0.308-0.632-0.713-0.632h-0.798v2.052h0.534v-0.788h0.005l0.503,0.788h0.665L14.04,19.93
		C14.331,19.878,14.49,19.633,14.49,19.351z M13.564,19.639h-0.051v-0.512h0.051c0.174,0,0.37,0.031,0.37,0.256
		C13.935,19.605,13.739,19.639,13.564,19.639z"/>
	<polygon points="15.42,20.771 16.587,20.771 16.587,20.32 15.953,20.32 15.953,19.965 16.555,19.965 16.555,19.514 15.953,19.514 
		15.953,19.17 16.587,19.17 16.587,18.719 15.42,18.719 	"/>
	<polygon points="17.509,20.771 18.676,20.771 18.676,20.32 18.042,20.32 18.042,19.965 18.644,19.965 18.644,19.514 18.042,19.514 
		18.042,19.17 18.676,19.17 18.676,18.719 17.509,18.719 	"/>
	<polygon points="21.443,18.719 20.781,18.719 20.138,19.564 20.131,19.564 20.131,18.719 19.598,18.719 19.598,20.771 
		20.131,20.771 20.131,19.881 20.138,19.881 20.826,20.771 21.517,20.771 20.626,19.69 	"/>
</g>
</svg>
