<?xml version="1.0" encoding="utf-8"?>
<!-- Generator: Adobe Illustrator 16.0.4, SVG Export Plug-In . SVG Version: 6.00 Build 0)  -->
<!DOCTYPE svg PUBLIC "-//W3C//DTD SVG 1.1//EN" "http://www.w3.org/Graphics/SVG/1.1/DTD/svg11.dtd">
<svg version="1.1" id="Layer_1" xmlns="http://www.w3.org/2000/svg" xmlns:xlink="http://www.w3.org/1999/xlink" x="0px" y="0px"
	 width="32px" height="32px" viewBox="0 0 32 32" enable-background="new 0 0 32 32" xml:space="preserve">
<g>
	<polygon points="10.314,14.904 9.798,16.61 10.912,16.61 10.327,14.904 	"/>
	<path d="M16,2C8.268,2,2,8.268,2,16c0,7.732,6.268,14,14,14c7.732,0,14-6.268,14-14C30,8.268,23.732,2,16,2z M11.527,18.346
		l-0.361-0.988h-1.63l-0.385,0.988H8.186l1.83-4.816h0.709l1.78,4.816H11.527z M16.247,14.898c-0.256-0.311-0.642-0.498-1.033-0.498
		c-0.878,0-1.382,0.809-1.382,1.618c0,0.791,0.522,1.581,1.375,1.581c0.392,0,0.784-0.206,1.04-0.498v1.089
		c-0.343,0.162-0.686,0.28-1.065,0.28c-1.319,0-2.296-1.139-2.296-2.433c0-1.332,0.939-2.508,2.315-2.508
		c0.367,0,0.728,0.1,1.046,0.273V14.898z M20.414,14.898c-0.255-0.311-0.641-0.498-1.033-0.498C18.504,14.4,18,15.209,18,16.019
		c0,0.791,0.522,1.581,1.375,1.581c0.393,0,0.784-0.206,1.039-0.498v1.089c-0.343,0.162-0.685,0.28-1.063,0.28
		c-1.319,0-2.297-1.139-2.297-2.433c0-1.332,0.939-2.508,2.315-2.508c0.367,0,0.728,0.1,1.045,0.273V14.898z M23.814,14.451h-1.413
		v1.033h1.326v0.796h-1.326v2.065h-0.915v-4.692h2.328V14.451z"/>
</g>
</svg>
