<?xml version="1.0" encoding="utf-8"?>
<!-- Generator: Adobe Illustrator 16.0.4, SVG Export Plug-In . SVG Version: 6.00 Build 0)  -->
<!DOCTYPE svg PUBLIC "-//W3C//DTD SVG 1.1//EN" "http://www.w3.org/Graphics/SVG/1.1/DTD/svg11.dtd">
<svg version="1.1" id="Layer_1" xmlns="http://www.w3.org/2000/svg" xmlns:xlink="http://www.w3.org/1999/xlink" x="0px" y="0px"
	 width="32px" height="32px" viewBox="0 0 32 32" enable-background="new 0 0 32 32" xml:space="preserve">
<g>
	<polygon points="8.312,14.686 9.312,14.686 8.816,12.22 	"/>
	<path d="M13.564,19.127h-0.051v0.512h0.051c0.174,0,0.37-0.033,0.37-0.256C13.935,19.158,13.739,19.127,13.564,19.127z"/>
	<path d="M16,2C8.269,2,2,8.269,2,16c0,7.732,6.269,14,14,14c7.732,0,14-6.268,14-14C30,8.269,23.732,2,16,2z M9.688,16.528
		l-0.255-1.263H8.192l-0.255,1.263H7.26l1.248-5.354h0.624l1.24,5.354H9.688L9.688,16.528z M12.055,19.408
		c-0.109-0.147-0.286-0.227-0.468-0.227c-0.326,0-0.547,0.25-0.547,0.568c0,0.324,0.223,0.559,0.556,0.559
		c0.174,0,0.348-0.085,0.459-0.218v0.639c-0.177,0.054-0.305,0.095-0.471,0.095c-0.286,0-0.559-0.109-0.77-0.303
		c-0.226-0.203-0.329-0.471-0.329-0.775c0-0.28,0.106-0.551,0.303-0.751c0.201-0.206,0.493-0.332,0.781-0.332
		c0.171,0,0.329,0.038,0.488,0.104v0.642H12.055z M12.606,16.528h-0.647v-4.775h-0.902v-0.579H13.5v0.579h-0.894V16.528z
		 M14.021,20.771l-0.503-0.789h-0.005v0.789h-0.534v-2.054h0.798c0.405,0,0.713,0.195,0.713,0.633c0,0.283-0.158,0.528-0.449,0.58
		l0.645,0.841H14.021z M16.587,19.17h-0.634v0.344h0.602v0.452h-0.602v0.353h0.634v0.453H15.42v-2.053h1.167V19.17z M17.297,16.528
		H16.65v-2.428h-1.188v2.428h-0.647v-5.353h0.647v2.338h1.188v-2.338h0.646V16.528z M18.676,19.17h-0.634v0.344h0.602v0.452h-0.602
		v0.353h0.634v0.453h-1.167v-2.053h1.167V19.17z M18.785,11.174h2.067v0.579h-1.42v1.797h1.226v0.579h-1.226v1.819h1.42v0.579
		h-2.067V11.174z M20.826,20.771l-0.688-0.89h-0.007v0.89h-0.533v-2.054h0.533v0.848h0.007l0.644-0.848h0.662l-0.817,0.973
		l0.891,1.08L20.826,20.771L20.826,20.771z M23.747,14.363v2.166h-0.646v-2.166l-0.985-3.188h0.707l0.603,2.286l0.602-2.286h0.713
		L23.747,14.363z"/>
</g>
</svg>
